<?xml version="1.0" encoding="UTF-8" standalone="no"?>
<!-- Created with Inkscape (http://www.inkscape.org/) -->
<svg
   xmlns:dc="http://purl.org/dc/elements/1.1/"
   xmlns:cc="http://creativecommons.org/ns#"
   xmlns:rdf="http://www.w3.org/1999/02/22-rdf-syntax-ns#"
   xmlns:svg="http://www.w3.org/2000/svg"
   xmlns="http://www.w3.org/2000/svg"
   xmlns:xlink="http://www.w3.org/1999/xlink"
   xmlns:sodipodi="http://sodipodi.sourceforge.net/DTD/sodipodi-0.dtd"
   xmlns:inkscape="http://www.inkscape.org/namespaces/inkscape"
   width="32"
   height="32"
   id="svg4908"
   sodipodi:version="0.32"
   inkscape:version="0.45+devel"
   version="1.0"
   sodipodi:docname="gnome-obex-server.svg"
   inkscape:output_extension="org.inkscape.output.svg.inkscape"
   inkscape:export-filename="/home/andreas/project/application icons/32x32/gnome-obex-server.png"
   inkscape:export-xdpi="90"
   inkscape:export-ydpi="90">
  <defs
     id="defs4910">
    <linearGradient
       inkscape:collect="always"
       id="linearGradient5671">
      <stop
         style="stop-color:#729fcf;stop-opacity:1;"
         offset="0"
         id="stop5673" />
      <stop
         style="stop-color:#3465a4;stop-opacity:1"
         offset="1"
         id="stop5675" />
    </linearGradient>
    <linearGradient
       inkscape:collect="always"
       xlink:href="#linearGradient5671"
       id="linearGradient5677"
       x1="10.915961"
       y1="14.010388"
       x2="10.915961"
       y2="18.908218"
       gradientUnits="userSpaceOnUse"
       gradientTransform="matrix(1.5571915,0,0,1.388736,-1.1436972,1.0476737)" />
    <filter
       inkscape:collect="always"
       id="filter5761"
       x="-0.077635549"
       width="1.1552711"
       y="-0.41717416"
       height="1.8343483">
      <feGaussianBlur
         inkscape:collect="always"
         stdDeviation="0.45085227"
         id="feGaussianBlur5763" />
    </filter>
  </defs>
  <sodipodi:namedview
     id="base"
     pagecolor="#ffffff"
     bordercolor="#666666"
     borderopacity="1.0"
     inkscape:pageopacity="0.0"
     inkscape:pageshadow="2"
     inkscape:zoom="22.627417"
     inkscape:cx="19.269619"
     inkscape:cy="15.886843"
     inkscape:current-layer="layer1"
     showgrid="true"
     inkscape:grid-bbox="true"
     inkscape:document-units="px"
     width="32px"
     height="32px"
     inkscape:window-width="1680"
     inkscape:window-height="948"
     inkscape:window-x="0"
     inkscape:window-y="51">
    <inkscape:grid
       type="xygrid"
       id="grid5068" />
  </sodipodi:namedview>
  <metadata
     id="metadata4913">
    <rdf:RDF>
      <cc:Work
         rdf:about="">
        <dc:format>image/svg+xml</dc:format>
        <dc:type
           rdf:resource="http://purl.org/dc/dcmitype/StillImage" />
      </cc:Work>
    </rdf:RDF>
  </metadata>
  <g
     id="layer1"
     inkscape:label="Layer 1"
     inkscape:groupmode="layer">
    <rect
       style="opacity:0.24074073;fill:#000000;fill-opacity:1;stroke:none;stroke-width:1;stroke-linecap:round;stroke-linejoin:miter;stroke-miterlimit:4;stroke-dasharray:none;stroke-dashoffset:0;stroke-opacity:1;filter:url(#filter5761)"
       id="rect5679"
       width="13.9375"
       height="2.59375"
       x="4.03125"
       y="18.96875"
       rx="0.66293061"
       ry="0.74445522"
       transform="matrix(1.4144526,0,0,1.2595572,0.4278694,4.1077744)" />
    <path
       style="opacity:0.19444442;fill:none;fill-rule:evenodd;stroke:#ffffff;stroke-width:1px;stroke-linecap:round;stroke-linejoin:miter;stroke-opacity:1"
       d="M 7.544334,6.367318 C 7.544334,6.367318 10.903659,2.9346907 16.03105,2.923748 C 21.202642,2.9127109 24.694572,6.499763 24.694572,6.499763"
       id="path5667"
       sodipodi:nodetypes="czc" />
    <path
       style="opacity:0.18981479;fill:none;fill-rule:evenodd;stroke:#ffffff;stroke-width:1px;stroke-linecap:round;stroke-linejoin:miter;stroke-opacity:1"
       d="M 10.992062,11.135338 C 10.992062,11.135338 12.660678,8.6736397 16.119453,8.7071795 C 19.534031,8.7402908 20.981634,11.135338 20.981634,11.135338"
       id="path5669"
       sodipodi:nodetypes="czc" />
    <path
       style="opacity:1;fill:#5886bd;fill-opacity:1;stroke:#204a87;stroke-width:1;stroke-linecap:round;stroke-linejoin:round;stroke-miterlimit:4;stroke-dasharray:none;stroke-dashoffset:0;stroke-opacity:1"
       d="M 16 1.5 C 8.5350733 1.5 2.46875 7.5663245 2.46875 15.03125 C 2.46875 19.277634 4.4332486 23.080432 7.5 25.5625 L 8.59375 23.8125 C 6.1177395 21.697291 4.5625 18.540934 4.5625 15.03125 C 4.5625001 8.6641071 9.7388038 3.5 16.09375 3.5 C 22.448696 3.5 27.59375 8.6641071 27.59375 15.03125 C 27.59375 18.556827 26.018124 21.728338 23.53125 23.84375 L 24.5625 25.5 C 27.590107 23.017072 29.531251 19.246059 29.53125 15.03125 C 29.53125 7.5663241 23.464927 1.5 16 1.5 z "
       id="path5064" />
    <path
       style="opacity:1;fill:#5886bd;fill-opacity:1;stroke:#204a87;stroke-width:1.00000012;stroke-linecap:round;stroke-linejoin:round;stroke-miterlimit:4;stroke-dasharray:none;stroke-dashoffset:0;stroke-opacity:1"
       d="M 16.03125 6.5 C 11.310781 6.5 7.5 10.303927 7.5 15 C 7.5 17.435445 8.5422697 19.60686 10.1875 21.15625 L 11.28125 19.40625 C 10.206455 18.251079 9.5625 16.704332 9.5625 15 C 9.5624997 11.426105 12.445158 8.5 16.03125 8.5 C 19.617342 8.5 22.53125 11.426105 22.53125 15 C 22.53125 16.737378 21.838457 18.306877 20.71875 19.46875 L 21.84375 21.21875 C 23.531083 19.666581 24.59375 17.463979 24.59375 15 C 24.59375 10.303927 20.751718 6.5000001 16.03125 6.5 z "
       id="path5655" />
    <path
       style="opacity:1;fill:#5886bd;fill-opacity:1;stroke:#204a87;stroke-width:1.00000012;stroke-linecap:round;stroke-linejoin:round;stroke-miterlimit:4;stroke-dasharray:none;stroke-dashoffset:0;stroke-opacity:1"
       d="M 16 11.5 C 14.07278 11.5 12.5 13.079635 12.5 15.03125 C 12.5 16.982865 14.07278 18.593749 16 18.59375 C 17.92722 18.59375 19.5 16.982865 19.5 15.03125 C 19.5 13.079635 17.92722 11.5 16 11.5 z M 16.03125 13.5 C 16.860688 13.5 17.53125 14.170564 17.53125 15 C 17.53125 15.829436 16.860687 16.53125 16.03125 16.53125 C 15.201814 16.531249 14.53125 15.829436 14.53125 15 C 14.53125 14.170564 15.201813 13.5 16.03125 13.5 z "
       id="path5659" />
    <path
       style="fill:url(#linearGradient5677);fill-opacity:1;fill-rule:evenodd;stroke:#204a87;stroke-width:0.99999987999999995px;stroke-linecap:butt;stroke-linejoin:miter;stroke-opacity:1"
       d="M 7.4781612,29.553558 L 15.997845,15.105031 L 24.524055,29.564626 L 7.4781612,29.553558 z"
       id="path5070" />
    <path
       style="opacity:0.18055558;fill:none;fill-rule:evenodd;stroke:#eeeeec;stroke-width:0.99999982px;stroke-linecap:butt;stroke-linejoin:miter;stroke-opacity:1"
       d="M 9.3078964,28.505338 L 16.018236,17.22121 L 22.681368,28.513981 L 9.3078964,28.505338 z"
       id="path5665"
       sodipodi:nodetypes="cccc" />
    <path
       style="fill:none;fill-rule:evenodd;stroke:#ffffff;stroke-width:1px;stroke-linecap:round;stroke-linejoin:miter;stroke-opacity:1;opacity:0.32407407"
       d="M 7.2036503,6.1022141 C 7.2036503,6.1022141 10.848917,2.4782918 16.042485,2.4782918 C 21.280241,2.4782918 24.837126,6.1022141 24.837126,6.1022141"
       id="path5689"
       sodipodi:nodetypes="czc" />
    <path
       style="fill:none;fill-rule:evenodd;stroke:#ffffff;stroke-width:1px;stroke-linecap:round;stroke-linejoin:miter;stroke-opacity:1;opacity:0.32407407"
       d="M 11.081475,9.339651 C 11.081475,9.339651 13.00182,7.4834956 15.89864,7.4834956 C 18.751286,7.4834956 20.715805,9.1628743 20.715805,9.1628743"
       id="path5691"
       sodipodi:nodetypes="czc" />
  </g>
</svg>
